<svg width="16" height="16" viewBox="0 0 16 16" fill="none" xmlns="http://www.w3.org/2000/svg">
<path d="M9.99999 4.24723C9.99999 3.10568 8.65891 2.49199 7.79504 3.23824L5.57545 5.15564C5.33326 5.36486 5.02389 5.47998 4.70384 5.47998L3.66665 5.47999C2.74618 5.47999 2 6.22618 2 7.14665V9.34197C2 10.2624 2.74619 11.0086 3.66667 11.0086H4.70386C5.02391 11.0086 5.33329 11.1238 5.57548 11.333L7.79504 13.2504C8.65891 13.9966 9.99999 13.3829 9.99999 12.2414V8.2443V4.24723Z" stroke="#828282"/>
<path d="M12 10.2446C12.4186 9.68752 12.6667 8.99503 12.6667 8.24463C12.6667 7.49422 12.4186 6.80174 12 6.24463" stroke="#828282" stroke-linecap="round"/>
<path d="M13.334 12.2446C14.1712 11.1304 14.6673 9.74544 14.6673 8.24463C14.6673 6.74382 14.1712 5.35884 13.334 4.24463" stroke="#828282" stroke-linecap="round"/>
</svg>
