<svg width="16" height="16" viewBox="0 0 16 16" fill="none" xmlns="http://www.w3.org/2000/svg">
<path d="M9.99999 4.24699C9.99999 3.10543 8.65891 2.49175 7.79504 3.238L5.57545 5.15539C5.33326 5.36461 5.02389 5.47973 4.70384 5.47974L3.66665 5.47974C2.74618 5.47975 2 6.22594 2 7.14641V9.34173C2 10.2622 2.74619 11.0084 3.66667 11.0084H4.70386C5.02391 11.0084 5.33329 11.1235 5.57548 11.3327L7.79504 13.2501C8.65891 13.9964 9.99999 13.3827 9.99999 12.2411V8.24405V4.24699Z" stroke="#1C6E96"/>
<path d="M12 10.2441C12.4186 9.68703 12.6667 8.99454 12.6667 8.24414C12.6667 7.49374 12.4186 6.80125 12 6.24414" stroke="#1C6E96" stroke-linecap="round"/>
<path d="M13.334 12.2441C14.1712 11.1299 14.6673 9.74495 14.6673 8.24414C14.6673 6.74333 14.1712 5.35835 13.334 4.24414" stroke="#1C6E96" stroke-linecap="round"/>
</svg>
