<svg width="16" height="16" viewBox="0 0 16 16" fill="none" xmlns="http://www.w3.org/2000/svg">
<path d="M7.99967 2.74497V13.9937M7.99967 2.74497L8.7331 2.46974C10.4021 1.84342 12.2639 1.84342 13.9329 2.46974C14.3759 2.63597 14.6663 3.03846 14.6663 3.48605V12.7198C14.6663 13.3344 14.0047 13.7547 13.3964 13.5264C12.0718 13.0293 10.5942 13.0293 9.26957 13.5264L8.00882 13.9995C8.00444 14.0012 7.99967 13.9982 7.99967 13.9937M7.99967 2.74497L7.26625 2.46974C5.59726 1.84342 3.73542 1.84342 2.06643 2.46974C1.62347 2.63597 1.33301 3.03846 1.33301 3.48605V12.7198C1.33301 13.3344 1.99466 13.7547 2.60291 13.5264C3.92751 13.0293 5.40517 13.0293 6.72977 13.5264L7.99053 13.9995C7.99491 14.0012 7.99967 13.9982 7.99967 13.9937" stroke="#4F4F4F"/>
</svg>
