<svg width="16" height="16" viewBox="0 0 16 16" fill="none" xmlns="http://www.w3.org/2000/svg">
<path fill-rule="evenodd" clip-rule="evenodd" d="M2.83398 4.66667C2.83398 2.91776 4.25175 1.5 6.00065 1.5H10.0007C11.7496 1.5 13.1673 2.91777 13.1673 4.66667V13.4456C13.1673 14.3686 12.1462 14.9261 11.3698 14.4269L8.45128 12.5508C8.17678 12.3743 7.82453 12.3743 7.55002 12.5508L4.63154 14.4269C3.85511 14.9261 2.83398 14.3686 2.83398 13.4456V4.66667ZM6.00065 5.16667C5.72451 5.16667 5.50065 5.39052 5.50065 5.66667C5.50065 5.94281 5.72451 6.16667 6.00065 6.16667H10.0007C10.2768 6.16667 10.5007 5.94281 10.5007 5.66667C10.5007 5.39052 10.2768 5.16667 10.0007 5.16667H6.00065Z" fill="#1C6E96"/>
<rect x="4.66602" y="4.66675" width="6.66667" height="2.66667" fill="#1C6E96"/>
</svg>
