<svg width="55" height="59" viewBox="0 0 55 59" fill="none" xmlns="http://www.w3.org/2000/svg">
<rect y="4" width="55" height="55" rx="27.5" fill="#D51111"/>
<rect width="55" height="55" rx="27.5" fill="#F74A4A"/>
<path d="M17.1948 27.1824C17.1948 24.4186 22.0323 22.1781 27.9996 22.1781C33.967 22.1781 38.8044 24.4186 38.8045 27.1824V29.0022C38.8045 30.2585 37.7528 31.2769 36.4556 31.2769L33.6369 31.2769C32.3397 31.2769 31.288 30.2585 31.288 29.0022L31.288 28.6113C31.288 27.933 30.7741 27.3527 30.0771 27.286C29.4048 27.2216 28.7102 27.1824 27.9996 27.1824C27.289 27.1824 26.5944 27.2216 25.9221 27.286C25.2251 27.3527 24.7112 27.933 24.7112 28.6113L24.7112 29.0022C24.7112 30.2585 23.6596 31.2769 22.3623 31.2769L19.5437 31.2769C18.2464 31.2769 17.1948 30.2585 17.1948 29.0022L17.1948 27.1824Z" fill="#FEFEFE" stroke="#FEFEFE" stroke-width="1.5"/>
</svg>
