<svg width="16" height="16" viewBox="0 0 16 16" fill="none" xmlns="http://www.w3.org/2000/svg">
<path d="M2.66602 2.3335C2.66602 1.78121 3.11373 1.3335 3.66602 1.3335H6.99935C7.55163 1.3335 7.99935 1.78121 7.99935 2.3335V7.66683C7.99935 8.21911 7.55163 8.66683 6.99935 8.66683H2.66602V2.3335Z" fill="#1C6E96" stroke="#1C6E96"/>
<path d="M7.33398 2.6665H12.0248C12.5697 2.6665 12.8844 3.28464 12.564 3.72529L11.2377 5.54894C10.8976 6.01648 10.8976 6.64987 11.2377 7.1174L12.564 8.94106C12.8844 9.3817 12.5697 9.99984 12.0248 9.99984H8.00065C7.63246 9.99984 7.33398 9.70136 7.33398 9.33317V2.6665Z" fill="#1C6E96" stroke="#1C6E96"/>
<path d="M2.66602 14.6665L2.66602 2.6665" stroke="#1C6E96" stroke-linecap="round" stroke-linejoin="round"/>
</svg>
