<svg width="18" height="18" viewBox="0 0 18 18" fill="none" xmlns="http://www.w3.org/2000/svg">
<path d="M17.64 9.20448C17.64 8.56629 17.5828 7.95267 17.4764 7.36353H9V10.8449H13.8436C13.635 11.9699 13.001 12.9231 12.0478 13.5613V15.8195H14.9564C16.6582 14.2527 17.64 11.9453 17.64 9.20448Z" fill="#4285F4"/>
<path d="M8.99979 18C11.4298 18 13.467 17.194 14.9561 15.8195L12.0475 13.5613C11.2416 14.1013 10.2107 14.4204 8.99979 14.4204C6.65565 14.4204 4.6716 12.8372 3.96384 10.71H0.957031V13.0418C2.43798 15.9832 5.4816 18 8.99979 18Z" fill="#34A853"/>
<path d="M3.96405 10.7101C3.78405 10.1701 3.68181 9.59325 3.68181 9.00006C3.68181 8.40687 3.78405 7.83006 3.96405 7.29006V4.95825H0.95724C0.34776 6.17325 0 7.54782 0 9.00006C0 10.4523 0.34776 11.8269 0.95724 13.0419L3.96405 10.7101Z" fill="#FBBC04"/>
<path d="M8.99979 3.57957C10.3211 3.57957 11.5075 4.03362 12.4402 4.92543L15.0216 2.34405C13.463 0.89181 11.4257 0 8.99979 0C5.4816 0 2.43798 2.01681 0.957031 4.95819L3.96384 7.29C4.6716 5.16276 6.65565 3.57957 8.99979 3.57957Z" fill="#E94235"/>
</svg>
