<svg width="24" height="24" viewBox="0 0 24 24" fill="none" xmlns="http://www.w3.org/2000/svg">
<path d="M17.5 3C20.2614 3 22.5 5.23858 22.5 8V16C22.5 18.7614 20.2614 21 17.5 21H6C3.23858 21 1 18.7614 1 16V8C1 5.23858 3.23858 3 6 3H17.5ZM6.25 15.75C5.83579 15.75 5.5 16.0858 5.5 16.5C5.5 16.9142 5.83579 17.25 6.25 17.25H17.25C17.6642 17.25 18 16.9142 18 16.5C18 16.0858 17.6642 15.75 17.25 15.75H6.25ZM6.25 10.75C5.83579 10.75 5.5 11.0858 5.5 11.5C5.5 11.9142 5.83579 12.25 6.25 12.25H7.25C7.66421 12.25 8 11.9142 8 11.5C8 11.0858 7.66421 10.75 7.25 10.75H6.25ZM11.25 10.75C10.8358 10.75 10.5 11.0858 10.5 11.5C10.5 11.9142 10.8358 12.25 11.25 12.25H12.25C12.6642 12.25 13 11.9142 13 11.5C13 11.0858 12.6642 10.75 12.25 10.75H11.25ZM16.25 10.75C15.8358 10.75 15.5 11.0858 15.5 11.5C15.5 11.9142 15.8358 12.25 16.25 12.25H17.25C17.6642 12.25 18 11.9142 18 11.5C18 11.0858 17.6642 10.75 17.25 10.75H16.25ZM6.25 6.75C5.83579 6.75 5.5 7.08579 5.5 7.5C5.5 7.91421 5.83579 8.25 6.25 8.25H7.25C7.66421 8.25 8 7.91421 8 7.5C8 7.08579 7.66421 6.75 7.25 6.75H6.25ZM11.25 6.75C10.8358 6.75 10.5 7.08579 10.5 7.5C10.5 7.91421 10.8358 8.25 11.25 8.25H12.25C12.6642 8.25 13 7.91421 13 7.5C13 7.08579 12.6642 6.75 12.25 6.75H11.25ZM16.25 6.75C15.8358 6.75 15.5 7.08579 15.5 7.5C15.5 7.91421 15.8358 8.25 16.25 8.25H17.25C17.6642 8.25 18 7.91421 18 7.5C18 7.08579 17.6642 6.75 17.25 6.75H16.25Z" fill="#1C6E96"/>
</svg>
