<svg width="193" height="44" viewBox="0 0 193 44" fill="none" xmlns="http://www.w3.org/2000/svg">
<path d="M58.113 33.48L57.793 10.92C57.793 10.248 57.985 10.024 58.721 10.024H60.897C61.633 10.024 61.825 10.248 61.825 10.92L61.921 18.984L70.273 10.312C70.945 9.64003 71.265 9.54403 71.873 10.056L73.057 11.08C73.793 11.688 73.825 12.072 73.185 12.712L65.345 20.808L73.857 32.072C74.337 32.712 74.273 33.032 73.537 33.448L72.097 34.28C71.361 34.76 71.169 34.632 70.657 33.992L61.985 22.504L62.145 33.48C62.145 34.152 61.953 34.376 61.217 34.376H59.073C58.337 34.376 58.113 34.152 58.113 33.48ZM78.5235 25.32C78.5235 28.52 80.3155 30.728 83.0995 30.728C85.8835 30.728 87.7075 28.52 87.7075 25.32C87.7075 22.12 85.8835 19.912 83.0995 19.912C80.3155 19.912 78.5235 22.12 78.5235 25.32ZM74.7475 25.32C74.7475 20.04 78.0115 16.136 83.0995 16.136C88.2195 16.136 91.4515 20.04 91.4515 25.32C91.4515 30.632 88.2195 34.504 83.0995 34.504C78.0115 34.504 74.7475 30.632 74.7475 25.32ZM95.084 32.872L94.444 11.72C94.412 10.696 94.54 10.536 95.436 10.312C97.484 9.89603 98.764 9.80003 100.46 9.70403C105.356 9.54403 109.996 10.984 110.412 15.944C110.54 17.864 109.996 19.592 108.172 20.648C110.604 21.512 111.916 24.072 112.012 26.792C112.14 33.608 103.916 34.344 96.492 34.344C95.372 34.344 95.116 34.12 95.084 32.872ZM98.796 23.912L98.956 30.568C105.132 30.568 108.044 29.384 107.948 26.792C107.788 23.72 104.108 23.4 98.796 23.912ZM98.476 13.288L98.636 20.456C103.532 20.36 106.412 19.752 106.412 16.68C106.412 13.864 103.628 12.648 98.476 13.288ZM114.675 33.48L114.419 18.472C114.419 17.192 114.547 16.968 115.699 16.808C118.835 16.392 124.083 16.136 126.163 16.392C126.899 16.488 126.963 16.552 126.931 17.288L126.835 19.08C126.803 19.976 126.707 20.04 125.779 20.008C124.467 20.008 120.467 20.168 118.643 20.424L118.707 33.48C118.707 34.152 118.515 34.376 117.779 34.376H115.603C114.867 34.376 114.675 34.152 114.675 33.48ZM129.324 12.264C129.324 10.824 130.444 9.70403 131.948 9.70403C133.452 9.70403 134.668 10.824 134.668 12.264C134.668 13.768 133.452 14.824 131.948 14.824C130.444 14.824 129.324 13.768 129.324 12.264ZM130.06 33.48V18.408C130.06 17.736 130.252 17.48 130.988 17.48H133.164C133.9 17.48 134.092 17.736 134.092 18.408V33.48C134.092 34.152 133.9 34.376 133.164 34.376H130.988C130.252 34.376 130.06 34.152 130.06 33.48ZM141.437 25.768C141.437 29.64 144.637 30.728 149.501 30.728V20.04C144.637 20.2 141.437 21.96 141.437 25.768ZM153.533 10.92V33.48C153.533 34.152 153.341 34.376 152.605 34.376H149.501C143.709 34.376 137.405 33.096 137.405 25.512C137.405 19.144 143.453 16.232 149.501 16.328V10.92C149.501 10.248 149.693 10.024 150.429 10.024H152.605C153.341 10.024 153.533 10.248 153.533 10.92ZM172.253 17.512L172.413 33.384C172.509 39.08 168.669 40.648 164.221 40.648C162.845 40.648 161.405 40.552 159.773 40.328C159.133 40.232 159.037 40.04 159.037 39.496L159.101 37.256C159.133 36.584 159.293 36.424 159.901 36.52C161.053 36.744 162.429 36.936 163.453 36.936C166.397 36.936 167.933 36.552 168.285 34.056C162.013 34.216 155.997 32.424 155.997 25.192C155.997 19.08 161.661 16.008 168.317 16.008H170.973C171.901 16.008 172.253 16.36 172.253 17.512ZM160.157 25.48C160.157 29.16 162.813 30.408 168.413 30.312L168.317 19.688C162.653 19.784 160.157 21.864 160.157 25.48ZM178.684 24.296L187.612 23.624C187.26 21.064 185.596 19.784 183.26 19.784C180.668 19.784 178.844 21.512 178.684 24.296ZM183.164 16.136C188.604 16.136 191.516 19.848 191.772 25.64C191.804 26.504 191.548 26.728 190.748 26.824L178.972 27.752C179.868 31.688 186.076 31.336 188.924 29.928C189.532 29.64 189.66 29.864 189.756 30.472L189.98 32.616C190.076 33.224 189.916 33.32 189.308 33.544C187.484 34.28 185.308 34.568 183.74 34.568C177.948 34.568 174.716 30.632 174.716 25.256C174.716 20.584 177.724 16.136 183.164 16.136Z" fill="#248EC1"/>
<path d="M36.5 29H19.5C15.3579 29 12 32.3579 12 36.5C12 40.6421 15.3579 44 19.5 44H36.5C40.6421 44 44 40.6421 44 36.5C44 32.3579 40.6421 29 36.5 29Z" fill="#F6B831"/>
<path d="M21.5 14H6.5C2.91015 14 0 16.9101 0 20.5C0 24.0899 2.91015 27 6.5 27H21.5C25.0899 27 28 24.0899 28 20.5C28 16.9101 25.0899 14 21.5 14Z" fill="#F7DD4A"/>
<path d="M34 0H18C14.6863 0 12 2.68629 12 6C12 9.31371 14.6863 12 18 12H34C37.3137 12 40 9.31371 40 6C40 2.68629 37.3137 0 34 0Z" fill="#FBEFAC"/>
</svg>
