<svg width="24" height="24" viewBox="0 0 24 24" fill="none" xmlns="http://www.w3.org/2000/svg">
<path d="M2.83691 3.00269C5.5102 1.99953 8.4898 1.99953 11.1631 3.00269L11.25 3.03491V21.5232L9.83203 20.9919C8.01503 20.3101 5.98497 20.3101 4.16797 20.9919C2.8321 21.4929 1.25018 20.5944 1.25 19.0798V5.22925C1.25003 4.22228 1.90204 3.35351 2.83691 3.00269ZM12.8369 3.00269C15.5102 1.99953 18.4898 1.99953 21.1631 3.00269C22.098 3.35351 22.75 4.22228 22.75 5.22925V19.0798C22.7498 20.5944 21.1679 21.4929 19.832 20.9919C18.015 20.3101 15.985 20.3101 14.168 20.9919L12.75 21.5232V3.03491L12.8369 3.00269Z" fill="#248EC1"/>
</svg>
