<svg width="44" height="44" viewBox="0 0 44 44" fill="none" xmlns="http://www.w3.org/2000/svg">
<path d="M20.9725 3.54172C21.4389 2.76673 22.5624 2.76673 23.0288 3.54172L28.3766 12.4278C28.5441 12.7062 28.8174 12.9048 29.134 12.9781L39.2377 15.3182C40.1189 15.5223 40.4661 16.5908 39.8732 17.2739L33.0745 25.1058C32.8615 25.3512 32.7571 25.6725 32.7852 25.9962L33.6819 36.3286C33.7601 37.2297 32.8511 37.8901 32.0183 37.5373L22.4688 33.4916C22.1696 33.3648 21.8317 33.3648 21.5325 33.4916L11.983 37.5373C11.1502 37.8901 10.2412 37.2297 10.3194 36.3286L11.2161 25.9962C11.2442 25.6725 11.1398 25.3512 10.9268 25.1058L4.12813 17.2739C3.5352 16.5908 3.8824 15.5223 4.76358 15.3182L14.8673 12.9781C15.1839 12.9048 15.4572 12.7062 15.6247 12.4278L20.9725 3.54172Z" fill="#F7DD4A" stroke="#F7DD4A" stroke-width="1.5"/>
</svg>
